<?xml version="1.0" encoding="UTF-8"?>
<svg width="496px" height="87px" viewBox="0 0 496 87" version="1.1" xmlns="http://www.w3.org/2000/svg" xmlns:xlink="http://www.w3.org/1999/xlink">
    <!-- Generator: Sketch 50.2 (55047) - http://www.bohemiancoding.com/sketch -->
    <title>Frame</title>
    <desc>Created with Sketch.</desc>
    <defs>
        <path d="M86.6334165,43.3167082 C86.6334165,67.2396509 67.2396509,86.6334165 43.3167082,86.6334165 C19.3935411,86.6334165 0,67.2396509 0,43.3167082 C0,19.3935411 19.3935411,0 43.3167082,0 C67.2396509,0 86.6334165,19.3935411 86.6334165,43.3167082 Z" id="path-1"></path>
    </defs>
    <g id="Page-1" stroke="none" stroke-width="1" fill="none" fill-rule="evenodd">
        <g id="A4" transform="translate(-173.000000, -254.000000)">
            <g id="Frame" transform="translate(173.216958, 253.896978)">
                <g id="Clipped" transform="translate(0.002494, 0.458853)">
                    <mask id="mask-2" fill="white">
                        <use xlink:href="#path-1"></use>
                    </mask>
                    <g id="Shape"></g>
                    <g id="Group" mask="url(#mask-2)">
                        <g transform="translate(-31.421446, 0.000000)" id="Shape">
                            <path d="M104.729925,74.5711721 C112.942594,66.6884289 118.054863,55.5993516 118.054863,43.3167082 C118.054863,19.3935411 98.6615461,0 74.7381546,0 C50.8149875,0 31.4214464,19.3935411 31.4214464,43.3167082 C31.4214464,55.4431421 36.4045287,66.4060848 44.4346833,74.2690773 L74.2018803,44.5583042 L104.729925,74.5711721 Z" fill="#FFED49"></path>
                            <path d="M9.71272818,108.571421 L140.664838,108.571421 L75.1081229,43.6371501 L0.191619036,43.8073771 L9.71272818,108.571421 Z M75.0007481,52.8422095 L37.935202,89.9322195 L112.630623,89.9322195 L75.0007481,52.8422095 Z" fill="#000000"></path>
                        </g>
                    </g>
                </g>
                <rect id="Rectangle-path" fill="#000000" fill-rule="nonzero" x="36.9963092" y="66.4802494" width="5.26820948" height="5.27166584"></rect>
                <rect id="Rectangle-path" fill="#000000" fill-rule="nonzero" x="44.8983541" y="66.4802494" width="5.26820948" height="5.27166584"></rect>
                <rect id="Rectangle-path" fill="#000000" fill-rule="nonzero" x="36.9963092" y="74.3881297" width="5.26820948" height="5.27166584"></rect>
                <rect id="Rectangle-path" fill="#000000" fill-rule="nonzero" x="44.8983541" y="74.3881297" width="5.26820948" height="5.27166584"></rect>
                <polygon id="Shape" fill="#000000" fill-rule="nonzero" points="138.549167 69.4760599 138.549167 60.8935162 114.260209 60.8935162 114.260209 15.2718204 103.244389 15.2718204 103.244389 69.4760599"></polygon>
                <path d="M140.855232,54.0277506 C140.855232,63.965187 147.266105,70.6503242 155.482993,70.6503242 C159.365337,70.6503242 163.970374,69.2049377 166.588678,65.4105736 L166.8598,69.4760599 L176.250324,69.4760599 L176.250324,38.6699352 L166.8598,38.6699352 L166.588678,42.7352419 C163.970374,38.9409676 159.365337,37.4954913 155.482993,37.4954913 C147.266105,37.4954913 140.855232,44.2710324 140.855232,54.0277506 Z M150.96818,54.0277506 C150.96818,48.0653067 154.670075,44.9034115 158.733317,44.9034115 C162.61611,44.9034115 166.498454,47.7942743 166.498454,54.0277506 C166.498454,60.2610474 162.61611,63.2424938 158.733317,63.2424938 C154.670075,63.2424938 150.96818,60.0805536 150.96818,54.0277506 Z" id="Shape" fill="#000000" fill-rule="nonzero"></path>
                <path d="M235.538105,69.4760599 L235.538105,50.9562145 C235.538105,43.2772618 232.829127,37.4954913 224.522195,37.4954913 C219.285137,37.4954913 215.041446,40.6574314 213.055162,44.54202 C211.791122,40.2057257 208.720798,37.4954913 202.761496,37.4954913 C198.337357,37.4954913 193.642095,40.1153666 191.745586,44 L191.204239,38.6699352 L181.994165,38.6699352 L181.994165,69.4760599 L192.106933,69.4760599 L192.106933,53.0340249 C192.106933,48.5170125 195.357706,45.5357905 198.788479,45.5357905 C202.400599,45.5357905 203.664638,47.7039601 203.664638,52.2209726 L203.664638,69.4760599 L213.777406,69.4760599 L213.777406,53.0340249 C213.777406,48.5170125 217.118404,45.5357905 220.549626,45.5357905 C224.071072,45.5357905 225.425337,47.7039601 225.425337,52.2209726 L225.425337,69.4760599 L235.538105,69.4760599 Z" id="Shape" fill="#000000" fill-rule="nonzero"></path>
                <path d="M276.182643,54.1181097 C276.182643,44.1806733 269.771771,37.4954913 261.555062,37.4954913 C257.672269,37.4954913 253.067681,38.9409676 250.448928,42.7352419 L250.178254,38.6699352 L240.787731,38.6699352 L240.787731,87.0922693 L250.900499,87.0922693 L250.900499,66.0430424 C253.699701,69.3853865 257.762943,70.6503242 261.555062,70.6503242 C269.771771,70.6503242 276.182643,63.8749626 276.182643,54.1181097 Z M266.069875,54.1181097 C266.069875,60.0805536 262.367531,63.2424938 258.304738,63.2424938 C254.421945,63.2424938 250.539152,60.3517207 250.539152,54.1181097 C250.539152,47.8846334 254.421945,44.9034115 258.304738,44.9034115 C262.367531,44.9034115 266.069875,48.0653067 266.069875,54.1181097 Z" id="Shape" fill="#000000" fill-rule="nonzero"></path>
                <path d="M315.389875,54.0277506 C315.389875,44.4517057 307.263392,37.314818 297.240848,37.314818 C287.127631,37.314818 279.09182,44.4517057 279.09182,54.0277506 C279.09182,63.6038404 287.127631,70.8312219 297.240848,70.8312219 C307.263392,70.8312219 315.389875,63.6038404 315.389875,54.0277506 Z M305.276658,54.0277506 C305.276658,59.719207 302.116559,63.3327182 297.240848,63.3327182 C292.454913,63.3327182 289.204589,59.719207 289.204589,54.0277506 C289.204589,48.4266534 292.454913,44.8130524 297.240848,44.8130524 C302.116559,44.8130524 305.276658,48.4266534 305.276658,54.0277506 Z" id="Shape" fill="#000000" fill-rule="nonzero"></path>
                <path d="M353.101895,69.4760599 L353.101895,50.9562145 C353.101895,43.2772618 349.760898,37.4954913 341.453965,37.4954913 C337.029825,37.4954913 331.702544,40.2057257 329.806035,44.0903591 L329.264239,38.6699352 L320.054613,38.6699352 L320.054613,69.4760599 L330.167382,69.4760599 L330.167382,53.0340249 C330.167382,48.9687182 333.869277,45.5357905 337.571621,45.5357905 C341.183292,45.5357905 342.989127,47.613601 342.989127,52.5823192 L342.989127,69.4760599 L353.101895,69.4760599 Z" id="Shape" fill="#000000" fill-rule="nonzero"></path>
                <polygon id="Shape" fill="#000000" fill-rule="nonzero" points="407.134663 69.4760599 407.134663 60.8935162 382.845885 60.8935162 382.845885 15.2718204 371.829975 15.2718204 371.829975 69.4760599"></polygon>
                <path d="M440.003741,50.1431172 C440.003741,42.7352419 433.683092,37.4954913 425.647282,37.4954913 C416.979002,37.4954913 409.484539,44 409.484539,53.8470773 C409.484539,63.513616 416.166534,70.6503242 426.369526,70.6503242 C431.877257,70.6503242 436.663192,69.0240399 439.371721,66.6755112 L439.371721,59.9901945 C437.114314,61.9775561 432.870623,63.6038404 429.439401,63.6038404 C421.764489,63.6038404 419.416858,59.1771421 419.416858,54.5698155 L439.461945,54.5698155 C439.733067,53.4857307 440.003741,51.5885486 440.003741,50.1431172 Z M430.794115,48.24598 C430.794115,48.9687182 430.703441,49.5107382 430.703441,49.5107382 L419.778204,49.5107382 C420.590673,45.174399 423.028529,43.5482943 425.737506,43.5482943 C429.078504,43.5482943 430.794115,45.6261047 430.794115,48.24598 Z" id="Shape" fill="#000000" fill-rule="nonzero"></path>
                <polygon id="Shape" fill="#000000" fill-rule="nonzero" points="465.946185 45.174399 465.946185 38.6699352 459.986434 38.6699352 459.986434 28.280793 449.873666 28.280793 449.873666 38.6699352 444.004589 38.6699352 444.004589 45.174399 449.873666 45.174399 449.873666 69.4760599 459.986434 69.4760599 459.986434 45.174399"></polygon>
                <path d="M495.114713,59.5385337 C495.114713,55.3828678 492.044838,51.0465287 483.19611,49.3300648 C480.487132,48.7880449 479.042643,48.1556658 479.042643,46.5295162 C479.042643,44.9937257 480.216459,44.0903591 482.924988,44.0903591 C485.994863,44.0903591 489.155411,45.1744439 492.225287,46.8909077 L493.760449,40.5670723 C491.954613,39.5733466 487.801147,37.4954913 482.744539,37.4954913 C473.805586,37.4954913 470.374364,42.4642095 470.374364,47.4329277 C470.374364,52.0402544 473.083342,56.2862793 481.30005,57.8220698 C484.911721,58.4544489 486.446434,59.2675012 486.446434,61.074414 C486.446434,63.061596 484.911721,63.965187 482.022294,63.965187 C477.236808,63.965187 473.534464,61.8873317 470.91616,60.2610474 L469.290773,66.9461845 C471.54818,68.3013466 475.972319,70.6503242 482.112519,70.6503242 C490.780798,70.6503242 495.114713,66.2234913 495.114713,59.5385337 Z" id="Shape" fill="#000000" fill-rule="nonzero"></path>
            </g>
        </g>
    </g>
</svg>