<?xml version="1.0" encoding="UTF-8"?>
<svg width="323px" height="49px" viewBox="0 0 323 49" version="1.1" xmlns="http://www.w3.org/2000/svg" xmlns:xlink="http://www.w3.org/1999/xlink">
    <!-- Generator: Sketch 51.2 (57519) - http://www.bohemiancoding.com/sketch -->
    <title>Artboard 2</title>
    <desc>Created with Sketch.</desc>
    <defs>
        <polygon id="path-1" points="0 0.0737635468 321.023588 0.0737635468 321.023588 31.9248966 0 31.9248966"></polygon>
        <polygon id="path-3" points="0.281313247 0.97237084 81.506961 0.97237084 81.506961 14 0.281313247 14"></polygon>
    </defs>
    <g id="Artboard-2" stroke="none" stroke-width="1" fill="none" fill-rule="evenodd">
        <g id="Group-7" transform="translate(1.000000, 1.000000)">
            <g id="Group-3">
                <mask id="mask-2" fill="white">
                    <use xlink:href="#path-1"></use>
                </mask>
                <g id="Clip-2"></g>
                <path d="M311.626309,29.5708571 C315.552656,29.5708571 317.756297,27.8675074 318.674904,22.8303153 L321.023588,9.89440394 L318.491692,9.89440394 L317.573084,14.9315961 C316.875859,18.8080985 314.270168,20.4762759 312.580541,20.4762759 C311.295508,20.4762759 310.710246,19.712532 310.710246,18.4438128 C310.710246,16.1626305 312.214116,13.6980493 312.214116,11.6680985 C312.214116,10.3642069 311.295508,9.56780296 310.158063,9.56780296 C309.351419,9.56780296 308.616024,9.8215468 307.918798,10.2561773 L307.918798,11.3414975 C308.175805,11.2711527 308.616024,11.1254384 308.982449,11.1254384 C309.387044,11.1254384 309.679675,11.4143547 309.679675,11.88667 C309.679675,13.878936 308.175805,16.3435172 308.175805,18.9513005 C308.175805,21.018936 309.387044,22.5765714 311.700103,22.5765714 C313.644192,22.5765714 315.481407,21.4183941 316.728271,19.6421872 L316.178633,22.7197734 C315.443238,26.7445025 313.974992,27.505734 311.883315,27.505734 C310.196233,27.505734 309.094412,27.1439606 307.590542,26.2746995 L307.590542,28.4478522 C308.87303,29.1010542 310.122439,29.5708571 311.626309,29.5708571 Z M302.437688,22.5037143 C303.244332,22.5037143 304.050977,22.2499704 304.748202,21.8153399 L304.748202,20.7275074 C304.491196,20.8028768 304.050977,20.9460788 303.684551,20.9460788 C303.134914,20.9460788 302.913532,20.5466207 303.06112,19.6421872 L306.585418,0.0737635468 L303.977183,0.508394089 L300.526679,19.6421872 C300.160254,21.6696256 301.040692,22.5037143 302.437688,22.5037143 Z M291.09123,22.2499704 L292.045462,16.9238621 C292.742688,13.0473596 294.46794,11.7409557 295.605385,11.7409557 C296.30261,11.7409557 296.74283,12.1755862 296.74283,12.755931 C296.74283,13.1553892 296.597786,13.6251921 296.193192,14.0598227 C297.552019,14.2783941 299.055889,13.5171626 299.055889,11.7409557 C299.055889,10.580266 298.284869,9.56780296 296.597786,9.56780296 C295.348378,9.56780296 293.623126,10.6556355 292.890276,12.2132709 C293.147282,10.4722365 292.302469,9.56780296 290.943642,9.56780296 C290.136998,9.56780296 289.327809,9.8215468 288.630583,10.2561773 L288.630583,11.3414975 C288.88759,11.2711527 289.327809,11.1254384 289.696778,11.1254384 C290.246416,11.1254384 290.467798,11.5223842 290.32021,12.42933 L288.559334,22.2499704 L291.09123,22.2499704 Z M280.398739,22.6494286 C282.490416,22.6494286 284.218213,21.9233695 285.648289,20.5843054 L284.803475,19.2779015 C283.66603,20.2200197 282.416622,20.7275074 281.06034,20.7275074 C279.335088,20.7275074 277.609836,19.8230739 277.426624,17.6122365 C282.968805,16.8861773 285.795877,14.3487389 286.126677,12.6102167 C286.454933,10.906867 284.912894,9.49494581 282.56421,9.49494581 C279.151876,9.49494581 275.775166,12.0323842 275.113565,15.8737143 C274.563927,19.1346995 276.58181,22.6494286 280.398739,22.6494286 Z M277.497873,16.0897734 C278.014431,13.082532 280.324945,11.3791823 282.23341,11.3791823 C283.33523,11.3791823 283.849243,12.0675567 283.739824,12.7207586 C283.518443,13.9894778 280.72954,15.728 277.497873,16.0897734 Z M258.02899,29.3171133 L260.560886,29.3171133 L261.919713,21.888197 C262.800151,22.3605123 263.68059,22.5765714 264.818034,22.5765714 C268.525545,22.5765714 271.683418,19.9311034 272.342474,16.2706601 C273.004075,12.6830739 271.426411,9.49494581 267.754525,9.49494581 C266.433868,9.49494581 264.78241,10.1104631 263.790008,11.1606108 L264.415985,7.5026798 L262.029131,7.5026798 L261.881544,8.44479803 C261.476949,11.1254384 259.53286,13.9166207 257.845777,15.7631724 L258.835634,16.6349458 C259.497235,15.8737143 260.30388,14.8939113 260.782268,13.9517931 L258.02899,29.3171133 Z M264.965622,20.692335 C263.571171,20.692335 262.726357,20.2577044 262.250513,19.8607586 L263.166576,14.6753399 C263.497377,12.7207586 265.332048,11.3791823 266.947881,11.3791823 C269.444152,11.3791823 270.286422,13.552335 269.810578,16.0897734 C269.332189,18.6272118 267.571313,20.692335 264.965622,20.692335 Z M253.820189,16.381202 C253.341801,19.0618424 251.359542,20.8028768 249.122822,20.8028768 C246.771593,20.8028768 245.196474,18.9161281 245.746112,15.7631724 C246.221956,13.0473596 248.275464,11.3414975 250.443479,11.3414975 C252.792163,11.3414975 254.369827,13.225734 253.820189,16.381202 Z M256.38771,16.4163744 C257.013687,12.8287882 254.738797,9.41957635 250.514729,9.41957635 C246.919181,9.41957635 243.799478,12.0675567 243.176046,15.728 C242.55007,19.3532709 244.863129,22.7197734 249.049028,22.7197734 C252.644575,22.7197734 255.766823,20.0768177 256.38771,16.4163744 Z M234.420011,22.2499704 L235.374243,16.9238621 C236.071469,13.0473596 237.796721,11.7409557 238.934166,11.7409557 C239.631391,11.7409557 240.07161,12.1755862 240.07161,12.755931 C240.07161,13.1553892 239.926567,13.6251921 239.521973,14.0598227 C240.880799,14.2783941 242.38467,13.5171626 242.38467,11.7409557 C242.38467,10.580266 241.61365,9.56780296 239.926567,9.56780296 C238.677159,9.56780296 236.951907,10.6556355 236.219057,12.2132709 C236.476063,10.4722365 235.63125,9.56780296 234.272423,9.56780296 C233.465778,9.56780296 232.65659,9.8215468 231.959364,10.2561773 L231.959364,11.3414975 C232.21637,11.2711527 232.65659,11.1254384 233.025559,11.1254384 C233.575197,11.1254384 233.796579,11.5223842 233.648991,12.42933 L231.888114,22.2499704 L234.420011,22.2499704 Z M214.691576,29.3171133 L217.223473,29.3171133 L218.582299,21.888197 C219.462738,22.3605123 220.343176,22.5765714 221.483166,22.5765714 C225.188131,22.5765714 228.346004,19.9311034 229.007605,16.2706601 C229.666662,12.6830739 228.088998,9.49494581 224.419656,9.49494581 C223.096454,9.49494581 221.444996,10.1104631 220.452595,11.1606108 L221.078571,7.5026798 L218.691718,7.5026798 L218.54413,8.44479803 C218.14208,11.1254384 216.197991,13.9166207 214.508364,15.7631724 L215.498221,16.6349458 C216.159822,15.8737143 216.966466,14.8939113 217.444855,13.9517931 L214.691576,29.3171133 Z M221.628209,20.692335 C220.233757,20.692335 219.388944,20.2577044 218.9131,19.8607586 L219.829163,14.6753399 C220.159964,12.7207586 221.994634,11.3791823 223.610467,11.3791823 C226.106739,11.3791823 226.951553,13.552335 226.473164,16.0897734 C225.99732,18.6272118 224.233899,20.692335 221.628209,20.692335 Z M207.95088,9.89440394 L205.30702,9.89440394 L201.342503,19.2075567 L197.339817,9.89440394 L194.698502,9.89440394 L200.021845,21.6696256 L195.543315,31.673665 L198.222799,31.673665 L207.95088,9.89440394 Z M193.146284,21.4183941 L192.779859,20.0768177 C192.377809,20.3305616 191.790002,20.6194778 190.945188,20.6194778 C189.843368,20.6194778 189.476943,19.9687882 189.476943,18.5920394 L189.476943,11.6329261 L192.67044,11.6329261 L192.67044,9.89440394 L189.476943,9.89440394 L189.476943,6.05307389 L186.797458,6.48770443 L186.797458,9.89440394 L184.888994,9.89440394 L184.888994,11.6329261 L186.797458,11.6329261 L186.797458,18.5543547 C186.797458,21.2726798 187.861109,22.5765714 189.955331,22.5765714 C191.275988,22.5765714 192.451603,22.0339113 193.146284,21.4183941 Z M182.731156,12.1052414 L182.731156,9.41957635 C180.60131,9.41957635 178.692845,10.6556355 177.848032,12.0323842 L177.519776,9.71351724 L175.280511,10.1104631 L175.280511,22.2499704 L177.959995,22.2499704 L177.959995,15.074798 C177.959995,13.0096749 180.344303,11.6680985 182.731156,12.1052414 Z M168.488922,13.6980493 C168.488922,13.8437635 168.450752,13.9894778 168.450752,13.9894778 L162.137551,13.9894778 C162.61594,12.2132709 164.010391,11.3414975 165.549886,11.3414975 C167.49652,11.3414975 168.488922,12.5021872 168.488922,13.6980493 Z M171.313449,20.692335 L170.433011,19.2779015 C169.404985,20.0768177 167.862945,20.6546502 166.651706,20.6546502 C162.542146,20.6546502 161.697332,17.720266 161.918714,15.728 L170.908855,15.728 C171.020818,15.2908571 171.092067,14.8210542 171.092067,14.3864236 C171.092067,11.7409557 168.781553,9.41957635 165.514261,9.41957635 C162.101927,9.41957635 159.27231,12.0323842 159.27231,16.054601 C159.27231,19.8934187 161.84492,22.7197734 165.883231,22.7197734 C167.936739,22.7197734 169.918998,21.9233695 171.313449,20.692335 Z M149.414454,11.4520394 C151.836932,11.4520394 153.450221,13.225734 153.450221,16.0897734 C153.450221,18.9513005 151.836932,20.692335 149.414454,20.692335 C147.653578,20.692335 146.147163,19.6421872 145.337974,18.2654384 L145.337974,13.8437635 C145.999575,12.5021872 147.653578,11.4520394 149.414454,11.4520394 Z M156.13225,16.054601 C156.13225,12.3941576 153.450221,9.41957635 149.964092,9.41957635 C148.055628,9.41957635 146.182788,10.2561773 145.119137,11.7409557 L144.826506,9.71351724 L142.661034,10.1104631 L142.661034,31.673665 L145.337974,31.673665 L145.337974,20.692335 C146.439794,22.0339113 148.165046,22.7197734 149.964092,22.7197734 C153.450221,22.7197734 156.13225,19.712532 156.13225,16.054601 Z M136.248593,16.054601 C136.248593,18.7704138 134.340129,20.7275074 131.698814,20.7275074 C129.090579,20.7275074 127.14649,18.7704138 127.14649,16.054601 C127.14649,13.3362759 129.090579,11.4143547 131.698814,11.4143547 C134.340129,11.4143547 136.248593,13.3362759 136.248593,16.054601 Z M138.928078,16.054601 C138.928078,12.3941576 135.77275,9.34923153 131.698814,9.34923153 C127.622334,9.34923153 124.467006,12.3941576 124.467006,16.054601 C124.467006,19.712532 127.622334,22.7951429 131.698814,22.7951429 C135.77275,22.7951429 138.928078,19.712532 138.928078,16.054601 Z M122.477113,12.1052414 L122.477113,9.41957635 C120.347267,9.41957635 118.438802,10.6556355 117.593988,12.0323842 L117.263188,9.71351724 L115.023923,10.1104631 L115.023923,22.2499704 L117.703407,22.2499704 L117.703407,15.074798 C117.703407,13.0096749 120.09026,11.6680985 122.477113,12.1052414 Z M104.392503,11.4520394 C106.814981,11.4520394 108.428269,13.225734 108.428269,16.0897734 C108.428269,18.9513005 106.814981,20.692335 104.392503,20.692335 C102.629082,20.692335 101.125212,19.6421872 100.316023,18.2654384 L100.316023,13.8437635 C100.977624,12.5021872 102.629082,11.4520394 104.392503,11.4520394 Z M111.110298,16.054601 C111.110298,12.3941576 108.428269,9.41957635 104.942141,9.41957635 C103.033676,9.41957635 101.163381,10.2561773 100.097185,11.7409557 L99.8045541,9.71351724 L97.6390829,10.1104631 L97.6390829,31.673665 L100.316023,31.673665 L100.316023,20.692335 C101.420387,22.0339113 103.143095,22.7197734 104.942141,22.7197734 C108.428269,22.7197734 111.110298,19.712532 111.110298,16.054601 Z M84.132243,14.4241084 C84.132243,16.2329754 82.9566289,17.6122365 81.0125396,17.6122365 C79.0302811,17.6122365 77.8546669,16.2329754 77.8546669,14.4241084 C77.8546669,12.5750443 79.0302811,11.1982956 81.0125396,11.1982956 C82.9566289,11.1982956 84.132243,12.5750443 84.132243,14.4241084 Z M81.0125396,9.41957635 C77.780873,9.41957635 75.3227706,11.7057833 75.3227706,14.4241084 C75.3227706,16.381202 76.6434281,18.1548966 78.2210921,18.7704138 C76.6790528,19.2427291 75.6891958,20.365734 75.6891958,21.4535665 C75.6891958,24.0990345 78.7351052,24.6416946 80.7555331,24.9306108 C83.9846551,25.3677537 85.3434819,26.0561281 85.3434819,27.5785911 C85.3434819,28.9553399 83.6894793,30.0054877 81.1957522,30.0054877 C79.1396997,30.0054877 76.86481,29.3171133 76.86481,27.7243054 C76.86481,26.7445025 77.3050291,26.0561281 78.1498428,25.65667 L77.1574412,25.1491823 C75.6891958,25.513468 74.477957,26.5987882 74.477957,28.0860788 C74.477957,30.1160296 77.0098533,31.9248966 81.1957522,31.9248966 C85.0126814,31.9248966 87.8015843,30.0406601 87.8015843,27.0334187 C87.8015843,24.7874089 86.0763323,23.1217438 80.9743703,22.5037143 C79.7275068,22.3605123 78.0378795,22.1419409 78.0378795,21.1621379 C78.0378795,20.2200197 79.1040751,19.712532 81.6715961,19.3884433 C84.3892496,19.0618424 86.6641394,17.0318916 86.6641394,14.4241084 C86.6641394,13.4066207 86.2595449,12.2836158 85.6742824,11.6329261 L88.0942155,11.6329261 L88.0942155,9.89440394 L85.2696879,9.89440394 C83.9108612,9.89440394 82.4044465,9.41957635 81.0125396,9.41957635 Z M71.5821801,22.2499704 L71.5821801,14.8210542 C71.5821801,11.7409557 70.258978,9.41957635 66.882268,9.41957635 C64.7905908,9.41957635 62.6607444,10.6556355 61.8184753,12.0323842 L61.4876748,9.71351724 L59.2484097,10.1104631 L59.2484097,22.2499704 L61.927894,22.2499704 L61.927894,15.1828276 C61.927894,13.1177044 64.2027837,11.560069 66.0018297,11.560069 C67.9102942,11.560069 68.9026958,12.6102167 68.9026958,14.9667685 L68.9026958,22.2499704 L71.5821801,22.2499704 Z M54.6146577,22.2499704 L54.6146577,9.45726108 L51.9351735,9.89440394 L51.9351735,22.2499704 L54.6146577,22.2499704 Z M54.9098336,4.23918227 C54.9098336,3.36992118 54.1388139,2.61120197 53.255831,2.61120197 C52.339768,2.61120197 51.604373,3.36992118 51.604373,4.23918227 C51.604373,5.14612808 52.339768,5.90735961 53.255831,5.90735961 C54.1388139,5.90735961 54.9098336,5.14612808 54.9098336,4.23918227 Z M48.4744911,21.4183941 L48.1080659,20.0768177 C47.7034714,20.3305616 47.1182089,20.6194778 46.2733953,20.6194778 C45.1715751,20.6194778 44.8051499,19.9687882 44.8051499,18.5920394 L44.8051499,11.6329261 L47.9986472,11.6329261 L47.9986472,9.89440394 L44.8051499,9.89440394 L44.8051499,6.05307389 L42.1256656,6.48770443 L42.1256656,9.89440394 L40.217201,9.89440394 L40.217201,11.6329261 L42.1256656,11.6329261 L42.1256656,18.5543547 C42.1256656,21.2726798 43.1893165,22.5765714 45.2835383,22.5765714 C46.6041958,22.5765714 47.7772654,22.0339113 48.4744911,21.4183941 Z M38.1865948,21.4183941 L37.8201696,20.0768177 C37.4155751,20.3305616 36.8303126,20.6194778 35.985499,20.6194778 C34.8836787,20.6194778 34.5172535,19.9687882 34.5172535,18.5920394 L34.5172535,11.6329261 L37.7107509,11.6329261 L37.7107509,9.89440394 L34.5172535,9.89440394 L34.5172535,6.05307389 L31.8377693,6.48770443 L31.8377693,9.89440394 L29.9293047,9.89440394 L29.9293047,11.6329261 L31.8377693,11.6329261 L31.8377693,18.5543547 C31.8377693,21.2726798 32.9014202,22.5765714 34.995642,22.5765714 C36.3162995,22.5765714 37.489369,22.0339113 38.1865948,21.4183941 Z M24.5677916,13.6980493 C24.5677916,13.8437635 24.5321669,13.9894778 24.5321669,13.9894778 L18.2189661,13.9894778 C18.69481,12.2132709 20.0892614,11.3414975 21.6313008,11.3414975 C23.5779346,11.3414975 24.5677916,12.5021872 24.5677916,13.6980493 Z M27.3948638,20.692335 L26.5144255,19.2779015 C25.4863992,20.0768177 23.9443598,20.6546502 22.733121,20.6546502 C18.6235606,20.6546502 17.7762024,17.720266 17.9975843,15.728 L26.9902693,15.728 C27.1022325,15.2908571 27.1734819,14.8210542 27.1734819,14.3864236 C27.1734819,11.7409557 24.8629675,9.41957635 21.5956761,9.41957635 C18.1807969,9.41957635 15.3537247,12.0323842 15.3537247,16.054601 C15.3537247,19.8934187 17.9237903,22.7197734 21.9621013,22.7197734 C24.0181538,22.7197734 26.0004123,21.9233695 27.3948638,20.692335 Z M-0.000508923884,22.2499704 L13.3231184,22.2499704 L13.3231184,19.8230739 L2.93598189,19.8230739 L2.93598189,0.508394089 L-0.000508923884,0.508394089 L-0.000508923884,22.2499704 Z" id="Fill-1" fill="#252525" mask="url(#mask-2)"></path>
            </g>
            <g id="Group-6" transform="translate(232.000000, 31.000000)">
                <mask id="mask-4" fill="white">
                    <use xlink:href="#path-3"></use>
                </mask>
                <g id="Clip-5"></g>
                <path d="M0.281313247,12.0288389 C17.8195158,1.95817222 51.9732613,-3.63327222 80.7213964,5.84083889 C81.3220197,6.04053333 81.6491678,6.68764444 81.4472561,7.28167222 C81.2479003,7.87822778 80.5987158,8.20178333 79.9904249,8.00208889 C51.8863626,-1.26221667 18.5428197,4.17756111 1.43911065,14.0005056" id="Fill-4" fill="#020303" mask="url(#mask-4)"></path>
            </g>
        </g>
    </g>
</svg>